<svg width="30" height="47" viewBox="0 0 30 47" fill="none" xmlns="http://www.w3.org/2000/svg">
<path d="M0.559012 10.5566H0V19.4609H10.9938C12.0186 19.4609 12.3913 20.8379 11.4596 21.2969L9.31678 22.3066C6.42858 23.6836 3.54038 24.418 0.559012 24.418H0V33.3223H10.7143C11.7391 33.3223 12.1118 34.6992 11.1801 35.1582L8.94411 36.168C6.24225 37.4531 3.35404 38.0957 0.559012 38.0957H0V47H10.7143L11.9255 45.5312C17.1429 39.5644 23.1988 36.4434 29.5342 36.4434H30V27.5391H19.2857C18.2609 27.5391 17.8882 26.1621 18.8199 25.7031L21.0559 24.6934C23.7578 23.4082 26.646 22.7656 29.441 22.7656H29.9069V13.8613H19.0062C17.9814 13.8613 17.6087 12.4844 18.5404 12.0254L20.6832 11.0156C23.5714 9.63867 26.4596 8.90431 29.441 8.90431H29.9069V0H19.1926L17.9814 1.46876C12.9503 7.43555 6.80125 10.5566 0.559012 10.5566Z" fill="#E6E6E9"/>
</svg>
