<svg width="32" height="32" viewBox="0 0 32 32" fill="none" xmlns="http://www.w3.org/2000/svg">
<rect width="32" height="32" rx="4" fill="#151515"/>
<path d="M9.27951 9.39062H9V13.9375H14.4969C15.0093 13.9375 15.1956 14.6406 14.7298 14.875L13.6584 15.3906C12.2143 16.0937 10.7702 16.4687 9.27951 16.4687H9V21.0156H14.3571C14.8696 21.0156 15.0559 21.7187 14.5901 21.9531L13.4721 22.4687C12.1211 23.125 10.677 23.4531 9.27951 23.4531H9V28H14.3571L14.9627 27.25C17.5714 24.2031 20.5994 22.6094 23.7671 22.6094H24V18.0625H18.6429C18.1304 18.0625 17.9441 17.3594 18.4099 17.125L19.528 16.6094C20.8789 15.9531 22.323 15.625 23.7205 15.625H23.9534V11.0781H18.5031C17.9907 11.0781 17.8043 10.375 18.2702 10.1406L19.3416 9.625C20.7857 8.92187 22.2298 8.54688 23.7205 8.54688H23.9534V4H18.5963L17.9907 4.75C15.4752 7.79688 12.4006 9.39062 9.27951 9.39062Z" fill="#E6E6E9"/>
</svg>
